<?xml version="1.0" encoding="UTF-8"?>
<svg version="1.1" viewBox="0 0 1600 608" width="1280" height="1280" xmlns="http://www.w3.org/2000/svg">
<path transform="translate(1143,7)" d="m0 0 2 1-1 9-5 16-9 20-10 19-14 21-10 13-12 14-11 12-14 14-8 7-13 11-19 14-13 9-21 13-26 14-28 12-6 3 11-1 33-5 40-8 21-6 21-7h4l-1 6-8 18-8 11-9 10-13 12-10 7-16 10-16 8-18 8-24 8-30 8-24 4-28 3-19 2 16 2 14 1 38 1v4l-14 14-14 10-21 11-28 10-23 5-22 3-25 2h-45l-51-3-32-2h-32l-25 2-26 4-17 5-16 7-7 2v-2l19-12 15-7 23-7 19-4 17-2 17-1h145l27-3 19-4 26-10 10-5 1-2h-12l-40-5-31-6-36-10-18-6-1-2 54-2 35-3 51-6 33-6 41-11 18-6 26-12 13-8 9-6-11 1-39 5-48 4-18 1h-74l-55-3-9-1v-2l41-4 28-5 36-9 26-8 37-14 36-17 25-14 25-17 13-10 13-11 12-11 8-8 9-11 7-9h-2l-16 8-21 10-35 14-31 11-30 10-38 12-28 8-32 9-49 13-67 17-39 9-49 11-64 14-37 8-46 11-54 16-40 14-34 14-20 9-31 15-23 13-23 14-22 15-19 14-20 16-14 12-13 12-7 7-8 7-16 17-8 8-9 11-11 12-11 14-14 17-10 14-13 19-4 5h-5l8-15 9-16 3-5v-36l-12-22-15-28-9-17-7-10-2-4-3-1v-2h54l7 15 11 21 8 17v2l4-4 10-22 5-12v-7l-4-6-2-4h47l5-3 11-11 11-9 14-12 20-15 20-14 22-14 26-15 35-18 28-13 47-19 31-11 33-11 36-11 50-14 64-16 64-15 35-8 36-10 29-8 47-14 47-15 36-12 31-11 33-12 28-11 41-17 37-17 38-19 23-13 20-12z" fill="#0E77C0"/>
<path transform="translate(961,452)" d="m0 0h22l6 1h51l-2 5-8 16h-10l6 10 2 7v8l-4 11-9 10-10 7-12 4-23 3-3 1 1 3h31l14 2 12 5 9 8 5 9 2 6v11l-4 9-6 8-8 6-11 6h-75l-13-8-6-7-1-2v-12l3-6 7-6 6-2 10-1 11 1 3 1-2 4-4 4v8l4 5 8 3 11 1 12-3 7-4 3-6-1-8-5-8-8-4-9-1-9 1h-14l-6-3-7-9-2-5v-6l5-3 9-2-3-3-10-6-6-5-6-10-2-6v-14l4-11 6-9 10-8 9-4zm10 20-5 3-4 5-2 6v10l4 9 4 5 8 2 8-5 3-6 1-9-3-12-6-7z" fill="#030506"/>
<path transform="translate(518,304)" d="m0 0h41l-5 9-10 13-14 14-15 11-15 9-24 11-23 7-28 6-31 4-14 1h-22l3 4-1 5-7 7-15 8-13 5-9 1 7 9-2 6-7 6-9 4-18 3h-9l1-2 19-7 8-6 1-3-6-8-5-5 9-4 16-7 11-8 2-3v-5l-28-4-3-2 1-1 40-1 35-4 28-5 18-5 26-10 16-8 18-11 6-5h-21l-29 3-45 7-36 7-54 14-36 12-20 8-13 6h-2v-2l16-10 37-19 27-12 41-15 32-9 33-8 31-5 49-5z" fill="#0E77C0"/>
<path transform="translate(541,452)" d="m0 0h5v10l10-7 12-3h12l14 3 9 6 7 7 4 8 1 6 1 64 1 9 6 7v2h-44l-13-1 6-9 1-4v-61l-4-8-6-4h-7l-6 4-3 4-1 9v55l2 7 5 5v3h-57l6-10 1-4v-84l-7-11 40-1z" fill="#030507"/>
<path transform="translate(174,452)" d="m0 0h4v75l2 8 4 5 3 1h7l6-4 2-3 1-5v-62l-3-6-3-4v-2l40-1 9-2v82l1 19 4 6 2 2v3h-48l-1-3v-8l-12 10-9 3-14 1-11-2-10-5-7-7-4-9-1-11-1-68 8-8 3-2 23-1z" fill="#030608"/>
<path transform="translate(844,452)" d="m0 0h25l12 3 12 6 10 9 9 14 4 12 1 7v10l-3 15-6 12-7 9-11 8-10 5-12 3-7 1h-17l-13-3-12-6-11-9-7-10-5-11-2-8v-18l3-12 7-14 10-11 11-7 12-4zm5 22-7 4-5 8-2 7-1 8v9l2 15 4 10 8 7 5 2h8l8-5 4-5 3-10v-24l-3-12-5-8-6-5-3-1z" fill="#030506"/>
<path transform="translate(430,452)" d="m0 0h10l14 2 12 5 9 7 7 9 5 11 2 9 1 14-3 1h-71l6 16 6 9 9 6 5 2 13 1 14-3 16-7 5-2-1 8-5 15-2 4-9 4-14 3-13 1h-10l-17-2-14-5-10-7-8-8-8-14-3-14v-16l3-13 6-11 9-10 8-7 11-5 8-2zm-1 21-5 3-5 6-2 7 1 1h32l1-2-6-12-5-3z" fill="#030608"/>
<path transform="translate(681,408)" d="m0 0h63l-6 9-2 4-1 20v96l10 1h27l12-4 8-4-1 7-5 20-3 6h-102l2-4 6-7 1-7v-118l-2-10-7-8z" fill="#030406"/>
<path transform="translate(1152,452)" d="m0 0h32l21 3 1 4v21l-4-1-12-5-10-2h-10l-7 3-1 6 5 5 24 8 14 8 8 8 5 10 1 11-2 8-6 10-7 6-12 6-16 4-9 1h-19l-21-3-7-2-3-5-3-15v-8l20 9 12 3h16l6-3 3-3-1-7-8-6-24-10-11-7-8-8-4-9v-9l4-11 7-9 9-6 11-4z" fill="#030507"/>
<path transform="translate(300,453)" d="m0 0h37l16 2 2 1v25l-5-2-13-5-5-1h-13l-6 3-2 4 3 5 9 4 13 4 16 8 8 7 6 9 2 6v11l-4 11-9 10-14 7-11 3-7 1h-32l-17-3-6-2-3-12-2-15 4 1 17 8 14 3h12l9-4 2-3-1-5-5-5-14-7-16-7-9-6-8-8-3-7v-13l4-10 5-6 10-7 11-4z" fill="#030506"/>
<path transform="translate(1526,452)" d="m0 0h32l20 3 1 5v20l-15-6-11-2h-9l-7 3-1 6 5 5 21 7 14 7 10 9 5 10 1 13-3 10-4 6-7 7-12 6-16 4-9 1h-20l-20-3-9-3-2-8-2-13v-6l17 8 15 4h16l7-4 1-2v-6l-5-5-10-5-19-8-10-7-7-7-3-6-1-4v-8l3-10 4-6 9-8 11-5z" fill="#030507"/>
<path transform="translate(1425,452)" d="m0 0h29l11 1 2 1v27l-5-2-9-4-5-1h-11l-7 3-5 5-5 10-1 4v15l4 13 6 10 8 5 6 2h13l12-4 9-5 4-1-4 17-3 8-12 6-12 3-8 1h-18l-13-3-14-7-10-8-7-9-5-12-2-7v-20l4-14 6-11 11-11 12-7 13-4z" fill="#030506"/>
<path transform="translate(1258,421)" d="m0 0h16l1 1v15l-1 18h27v28l-9-5-4-1-13-1v51l2 7 7 6 9 3 8 1-2 5-7 13-4 3-10 1h-14l-12-3-10-6-6-8-2-7-1-35v-30h-13l-1-3v-14l16-5 9-7 7-8 5-11z" fill="#030507"/>
<path transform="translate(2,408)" d="m0 0h54l7 15 11 21 8 17v2l4-4 10-22 5-12v-7l-4-6-2-4h24l20 1-2 5-12 13-11 12-9 11-10 12-12 16-13 18-15 23-4 2-1-29-12-22-15-28-9-17-7-10-2-4-3-1z" fill="#030506"/>
<path transform="translate(1356,452)" d="m0 0h4l1 89 2 13 5 7v2h-57l6-9 1-3v-85l-6-12h35z" fill="#030507"/>
<path transform="translate(1097,451)" d="m0 0 3 1v88l1 12 7 9v2h-58l4-6 3-4 1-9v-75l-3-8-4-5v-2h37z" fill="#030609"/>
<path transform="translate(93,503)" d="m0 0h2v29l2 17 6 10 2 5h-63l2-4 10-11 8-10 13-15 12-13z" fill="#030A0F"/>
<path transform="translate(1334,405)" d="m0 0h9l8 3 6 5 4 9v11l-4 8-8 7-5 2h-13l-8-6-6-8-1-3v-10l4-9 5-5 5-3z" fill="#030507"/>
<path transform="translate(1073,405)" d="m0 0h10l9 4 6 8 2 7v8l-5 10-7 6-5 2h-13l-8-6-6-9-1-8 2-9 4-6 6-5z" fill="#030608"/>
</svg>
